<?xml version="1.0" standalone="no"?>
<!DOCTYPE svg PUBLIC "-//W3C//DTD SVG 20010904//EN"
 "http://www.w3.org/TR/2001/REC-SVG-20010904/DTD/svg10.dtd">
<svg version="1.0" xmlns="http://www.w3.org/2000/svg"
 width="404.000000pt" height="214.000000pt" viewBox="0 0 404.000000 214.000000"
 preserveAspectRatio="xMidYMid meet">

<g transform="translate(0.000000,214.000000) scale(0.100000,-0.100000)"
fill="#ffffff" stroke="none">
<path d="M908 1530 c3 -43 7 -50 25 -50 12 -1 152 -2 311 -3 l290 -2 3 -52 4
-53 -580 0 -581 0 0 -50 c0 -41 3 -50 18 -50 9 -1 293 -1 630 -1 l612 0 0 -54
0 -55 -525 0 -525 0 0 -50 c0 -33 4 -50 13 -50 6 -1 125 -2 262 -3 l250 -2 0
-50 0 -50 -105 -5 -104 -5 3 -47 3 -48 -211 0 -211 0 0 -55 0 -55 260 0 260 0
0 -50 0 -50 -50 0 c-54 0 -53 1 -50 -68 l2 -42 -161 0 -161 0 0 -50 0 -50 209
0 208 0 7 42 c16 99 82 190 170 236 63 32 180 40 251 16 93 -32 185 -147 201
-251 l7 -43 418 0 419 0 0 25 c0 45 42 138 83 183 84 90 213 124 332 87 103
-33 194 -141 211 -253 l7 -42 155 2 156 3 0 47 -1 48 54 0 53 0 0 160 0 160
-56 0 -56 0 3 46 c3 40 0 48 -21 60 -14 7 -32 13 -41 14 -14 0 -80 19 -176 50
-18 6 -42 13 -54 15 -12 3 -93 25 -181 50 -134 38 -172 54 -251 102 -50 32
-93 61 -95 65 -2 5 -8 8 -14 8 -13 0 -242 141 -246 151 -2 5 -9 9 -16 9 -6 0
-35 16 -65 35 -29 19 -54 35 -56 35 -2 0 -36 20 -76 45 l-73 45 -576 0 -575 0
3 -50z"/>
<path d="M1276 629 c-39 -9 -91 -41 -113 -69 -62 -78 -57 -205 10 -279 77 -84
236 -79 311 10 37 44 48 74 48 135 0 92 -62 174 -150 200 -50 16 -52 16 -106
3z"/>
<path d="M2730 625 c-122 -38 -178 -177 -118 -293 67 -130 247 -151 342 -40
50 58 63 155 30 219 -52 102 -151 147 -254 114z"/>
</g>
</svg>
